<?xml version="1.0" encoding="UTF-8"?>
<svg width="200" height="200" version="1.1" xmlns="http://www.w3.org/2000/svg"><path d="m148.2 182.4c-33.008-5.4984-63.395-21.14-86.999-44.744-22.036-22.036-37.167-50.021-43.438-80.542 7.3853-13.72 16.801-26.59 28.346-38.136l34.264 54.276-17.139 9.8881c4.9903 11.694 12.175 22.324 21.166 31.315 10.206 10.206 22.509 18.07 36.057 23.047l8.9746-15.611 53.666 34.074c-10.613 10.613-22.345 19.426-34.897 26.433z" fill="none" stroke="#000" stroke-width="5"/> 
<g fill="none" stroke="#999" stroke-width="3">
  <path d="m0 16v-16h16"/>
  <path d="m200 16v-16h-16"/>
  <path d="m0 184v16h16"/>
  <path d="m200 184v16h-16"/>
 </g></svg>
